<?xml version="1.0" encoding="UTF-8" standalone="no"?>
<svg
   width="200"
   height="200"
   viewBox="0 0 200 200"
   version="1.1"
   id="svg1"
   sodipodi:docname="mark.svg"
   inkscape:version="1.4 (1:1.4+202410161351+e7c3feb100)"
   xmlns:inkscape="http://www.inkscape.org/namespaces/inkscape"
   xmlns:sodipodi="http://sodipodi.sourceforge.net/DTD/sodipodi-0.dtd"
   xmlns="http://www.w3.org/2000/svg"
   xmlns:svg="http://www.w3.org/2000/svg">
  <defs
     id="defs1" />
  <sodipodi:namedview
     id="namedview1"
     pagecolor="#ffffff"
     bordercolor="#000000"
     borderopacity="0.25"
     inkscape:showpageshadow="2"
     inkscape:pageopacity="0.0"
     inkscape:pagecheckerboard="0"
     inkscape:deskcolor="#d1d1d1"
     inkscape:zoom="11.215"
     inkscape:cx="100"
     inkscape:cy="100"
     inkscape:window-width="3840"
     inkscape:window-height="2523"
     inkscape:window-x="0"
     inkscape:window-y="0"
     inkscape:window-maximized="1"
     inkscape:current-layer="svg1" />
  <!-- Baseline y=134.56 derived from font metrics: § visual y-centre = 192 font units above baseline -->
  <!-- At font-size 180 (scale=0.18): offset = 192*0.18 = 34.56; y = 100 + 34.56 = 134.56              -->
  <!-- rotate(90, 100, 100) pivots around the viewBox centre so visual centre lands at x=100           -->
  <path
     d="m 114.22006,132.58 -1.44,-1.62 q 5.04,-3.96 6.48,-8.64 1.62,-4.68 1.62,-9.72 0,-8.1 -3.24,-13.680002 -3.06,-5.76 -7.92,-9.9 -4.68,-4.14 -10.260004,-7.56 -5.4,-3.42 -10.26,-7.02 -4.68,-3.6 -7.92,-8.1 -3.06,-4.68 -3.06,-11.16 0,-8.1 4.14,-13.32 4.14,-5.22 10.62,-7.74 6.48,-2.52 13.320004,-2.52 5.04,0 8.82,0.9 3.96,0.9 6.84,2.52 1.98,0.9 1.98,2.88 l 1.44,18.72 q 0,0.54 -1.08,0.54 -0.9,0 -1.08,-0.54 -0.54,-2.52 -2.52,-5.94 -1.98,-3.6 -5.22,-7.02 -3.06,-3.42 -7.02,-5.58 -3.78,-2.34 -8.46,-2.34 -4.680004,0 -7.920004,3.06 -3.06,3.06 -3.06,9.72 0,6.48 2.88,11.16 3.06,4.68 7.92,8.28 4.860004,3.42 10.080004,6.84 5.4,3.42 10.26,7.56 4.86,3.96 7.92,9.54 3.06,5.58 3.06,13.500002 0,4.68 -1.44,8.82 -1.26,4.14 -5.04,8.46 -3.6,4.32 -10.44,9.9 z M 97.660056,168.4 q -4.86,0 -8.82,-0.9 -3.78,-0.9 -6.84,-2.34 -0.72,-0.54 -1.44,-1.26 -0.54,-0.72 -0.72,-1.8 l -1.26,-18.72 q 0,-0.36 0.9,-0.36 1.08,0 1.26,0.36 0.72,2.52 2.7,6.12 1.98,3.6 4.86,6.84 3.06,3.42 7.02,5.58 3.96,2.34 8.640004,2.34 4.68,0 7.92,-3.06 3.24,-3.06 3.24,-9.72 0,-6.66 -3.06,-11.34 -3.06,-4.5 -7.92,-7.92 -4.860004,-3.6 -10.260004,-7.02 -5.4,-3.42 -10.26,-7.38 -4.86,-4.14 -8.1,-9.72 -3.06,-5.58 -3.06,-13.500002 0,-4.86 1.26,-8.82 1.44,-4.14 5.04,-8.46 3.78,-4.32 10.62,-9.9 l 1.44,1.62 q -5.04,3.96 -6.66,8.64 -1.44,4.68 -1.44,9.9 0,7.92 3.06,13.680002 3.24,5.58 8.1,9.72 4.86,4.14 10.440004,7.56 5.58,3.42 10.44,7.02 4.86,3.6 7.92,8.28 3.24,4.5 3.24,10.98 0,8.1 -4.32,13.32 -4.14,5.4 -10.62,7.74 -6.3,2.52 -13.320004,2.52 z"
     id="text1"
     style="font-weight:500;font-size:180px;font-family:'Cormorant Garamond', Georgia, 'Times New Roman', serif;text-anchor:middle"
     transform="rotate(90, 100, 100)"
     aria-label="§" />
</svg>
